{
  "accessors": [
    {
      "bufferView": 2,
      "componentType": 5126,
      "count": 1776,
      "max": [
        319.682861328125,
        872.2001953125,
        237.35551452636719
      ],
      "min": [
        -206.40316772460938,
        -64.767692565917969,
        -246.10285949707031
      ],
      "type": "VEC3"
    },
    {
      "bufferView": 2,
      "byteOffset": 21312,
      "componentType": 5126,
      "count": 1776,
      "max": [
        0.99956762790679932,
        0.99999743700027466,
        0.99976909160614014
      ],
      "min": [
        -0.99970316886901855,
        -0.99823254346847534,
        -0.99972414970397949
      ],
      "type": "VEC3"
    },
    {
      "bufferView": 3,
      "componentType": 5126,
      "count": 1776,
      "max": [
        0.99964427947998047,
        0.97490471601486206,
        0.99898064136505127,
        1
      ],
      "min": [
        -0.999744713306427,
        -0.99030804634094238,
        -0.9988592267036438,
        -1
      ],
      "type": "VEC4"
    },
    {
      "bufferView": 1,
      "componentType": 5126,
      "count": 1776,
      "max": [
        0.23556216061115265,
        0.99205178022384644
      ],
      "min": [
        0.015427976846694946,
        0.067129358649253845
      ],
      "type": "VEC2"
    },
    {
      "bufferView": 0,
      "componentType": 5125,
      "count": 5256,
      "max": [
        1775
      ],
      "min": [
        0
      ],
      "type": "SCALAR"
    }
  ],
  "asset": {
    "extras": {
      "author": "BitGem (https://sketchfab.com/bitgem)",
      "license": "CC-BY-4.0 (http://creativecommons.org/licenses/by/4.0/)",
      "source": "https://sketchfab.com/3d-models/birch-tree-proto-series-free-f0203eb84beb4d638d148e2116f5dbf7",
      "title": "Birch Tree - Proto Series - Free"
    },
    "generator": "Sketchfab-5.68.0",
    "version": "2.0"
  },
  "bufferViews": [
    {
      "buffer": 0,
      "byteLength": 21024,
      "byteOffset": 0,
      "name": "floatBufferViews",
      "target": 34963
    },
    {
      "buffer": 0,
      "byteLength": 14208,
      "byteOffset": 21024,
      "byteStride": 8,
      "name": "floatBufferViews",
      "target": 34962
    },
    {
      "buffer": 0,
      "byteLength": 42624,
      "byteOffset": 35232,
      "byteStride": 12,
      "name": "floatBufferViews",
      "target": 34962
    },
    {
      "buffer": 0,
      "byteLength": 28416,
      "byteOffset": 77856,
      "byteStride": 16,
      "name": "floatBufferViews",
      "target": 34962
    }
  ],
  "buffers": [
    {
      "byteLength": 106272,
      "uri": "scene.bin"
    }
  ],
  "images": [
    {
      "uri": "textures/birch_red_mat_baseColor.png"
    }
  ],
  "materials": [
    {
      "doubleSided": true,
      "name": "birch_red_mat",
      "pbrMetallicRoughness": {
        "baseColorFactor": [
          1,
          1,
          1,
          1
        ],
        "baseColorTexture": {
          "index": 0,
          "texCoord": 0
        },
        "metallicFactor": 0,
        "roughnessFactor": 1
      }
    }
  ],
  "meshes": [
    {
      "name": "birch_tree_SC_free_birch_red_mat_0",
      "primitives": [
        {
          "attributes": {
            "NORMAL": 1,
            "POSITION": 0,
            "TANGENT": 2,
            "TEXCOORD_0": 3
          },
          "indices": 4,
          "material": 0,
          "mode": 4
        }
      ]
    }
  ],
  "nodes": [
    {
      "children": [
        1
      ],
      "name": "RootNode (gltf orientation matrix)",
      "rotation": [
        -0.70710678118654746,
        -0,
        -0,
        0.70710678118654757
      ]
    },
    {
      "children": [
        2
      ],
      "name": "RootNode (model correction matrix)"
    },
    {
      "children": [
        3
      ],
      "matrix": [
        1,
        0,
        0,
        0,
        0,
        0,
        1,
        0,
        0,
        -1,
        0,
        0,
        0,
        0,
        0,
        1
      ],
      "name": "9f0524934cc54779aa1fdf0de5be3f5b.fbx"
    },
    {
      "children": [
        4
      ],
      "name": "RootNode"
    },
    {
      "children": [
        5
      ],
      "name": "birch_tree_SC_free"
    },
    {
      "mesh": 0,
      "name": "birch_tree_SC_free_birch_red_mat_0"
    }
  ],
  "samplers": [
    {
      "magFilter": 9729,
      "minFilter": 9987,
      "wrapS": 10497,
      "wrapT": 10497
    }
  ],
  "scene": 0,
  "scenes": [
    {
      "name": "OSG_Scene",
      "nodes": [
        0
      ]
    }
  ],
  "textures": [
    {
      "sampler": 0,
      "source": 0
    }
  ]
}

